<?xml version="1.0" standalone="no"?>
<!DOCTYPE svg PUBLIC "-//W3C//DTD SVG 20010904//EN"
 "http://www.w3.org/TR/2001/REC-SVG-20010904/DTD/svg10.dtd">
<svg version="1.0" xmlns="http://www.w3.org/2000/svg"
 width="512.000000pt" height="512.000000pt" viewBox="0 0 512.000000 512.000000"
 preserveAspectRatio="xMidYMid meet">

<g transform="translate(0.000000,512.000000) scale(0.100000,-0.100000)"
fill="#316099" stroke="none">
<path d="M2460 4191 c-14 -4 -45 -18 -69 -30 -62 -32 -2113 -1578 -2128 -1604
-17 -30 -16 -102 2 -136 18 -36 86 -65 131 -56 22 4 368 258 1071 787 571 430
1050 786 1065 792 19 7 34 6 52 -2 15 -6 490 -361 1058 -788 567 -427 1046
-781 1064 -787 46 -14 119 14 139 53 20 39 19 109 -3 142 -9 15 -160 138 -334
273 l-317 246 -3 292 c-3 273 -4 295 -24 332 -13 25 -36 47 -64 62 -41 22 -54
23 -239 23 -184 0 -200 -1 -241 -22 -54 -28 -90 -89 -90 -156 0 -32 -4 -43
-13 -39 -7 3 -184 134 -393 292 -208 158 -399 297 -424 308 -49 22 -195 33
-240 18z"/>
<path d="M2459 3464 c-32 -11 -270 -187 -780 -576 -599 -456 -737 -566 -751
-596 -16 -34 -17 -96 -18 -743 0 -440 4 -727 10 -760 14 -75 61 -169 109 -222
23 -25 74 -62 114 -83 l72 -39 412 -3 412 -3 3 548 3 548 24 53 c15 33 45 72
82 107 86 79 113 85 385 85 201 0 229 -2 279 -21 68 -25 147 -99 178 -166 22
-47 22 -55 25 -601 l3 -553 437 3 437 3 60 29 c115 57 206 175 234 304 8 37
11 272 11 770 -1 657 -2 720 -18 749 -19 36 -1425 1117 -1502 1155 -58 28
-158 34 -221 12z"/>
</g>
</svg>
